<svg width="206" height="87" viewBox="0 0 206 87" fill="none" xmlns="http://www.w3.org/2000/svg">
<g filter="url(#filter0_d_3460_249438)">
<rect x="18.7109" y="8.1676" width="168.289" height="49.6647" rx="24.8324" fill="url(#paint0_radial_3460_249438)"/>
<path d="M39.3723 31.4272L40.582 23.5638H52.7124L53.9222 31.4272H39.3723Z" fill="white"/>
<path d="M56.2291 30.908L55.0209 23.0547L58.8347 21.1478L63.3523 27.7738L56.2291 30.908Z" fill="white"/>
<path d="M36.7032 19.632L39.8486 18.0594H53.4459L56.5913 19.632L53.4459 21.2047H39.8486L36.7032 19.632Z" fill="white"/>
<path d="M29.9421 27.7738L34.4598 21.1478L38.2736 23.0547L37.0654 30.908L29.9421 27.7738Z" fill="white"/>
<path d="M41.1192 41.1085L32.6273 31.5325L37.1443 33.52L41.1192 41.1085Z" fill="white"/>
<path d="M46.6472 46.578L39.9468 33.7863H53.3477L46.6472 46.578Z" fill="white"/>
<path d="M52.1753 41.1085L56.1502 33.52L60.6672 31.5325L52.1753 41.1085Z" fill="white"/>
<path d="M80.1149 28.2746V31.1427H83.6887C87.4901 31.1427 90.1534 32.2809 90.1534 36.1961C90.1534 40.1113 87.4901 41.4999 83.4838 41.4999H76.2224V24.9967H89.0152V28.2746H80.1149ZM80.1149 38.222H83.5294C85.1911 38.222 86.0333 37.5164 86.0333 36.1278C86.0333 34.7393 85.1911 34.0336 83.5294 34.0336H80.1149V38.222ZM92.2499 41.4999V24.9967H96.0058V35.6953L103.017 24.9967H106.773V41.4999H103.017V30.8013L96.0058 41.4999H92.2499ZM120.367 32.7134C122.097 33.3963 122.985 34.4206 122.985 36.5831C122.985 40.2934 119.73 41.7958 116.748 41.7958C111.922 41.7958 109.737 39.3146 109.441 35.8547H113.265C113.447 37.6757 114.631 38.5179 116.384 38.5179C118.046 38.5179 118.865 37.744 118.865 36.3782C118.865 35.1945 118.023 34.4889 116.361 34.4889H114.403V31.598H116.156C117.636 31.598 118.706 30.9378 118.706 29.8225C118.706 28.5022 117.59 27.9331 116.384 27.9331C114.722 27.9331 113.356 28.8664 113.288 30.5054H109.464C109.828 27.2275 112.218 24.7236 116.52 24.7236C120.071 24.7236 122.553 26.408 122.553 29.2079C122.553 31.0289 121.756 31.9622 120.367 32.7134ZM136.092 24.9967H139.985V41.4999H136.092V34.7393H129.309V41.4999H125.416V24.9967H129.309V31.3021H136.092V24.9967ZM143.267 41.4999V24.9967H155.923V28.4112H147.159V31.3021H155.445V34.7393H147.159V38.0627H155.923V41.4999H143.267ZM169.648 35.3539H173.472C172.857 39.1781 169.784 41.7958 165.619 41.7958C160.474 41.7958 157.356 38.5179 157.356 33.2369C157.356 28.0242 160.565 24.7236 165.732 24.7236C169.852 24.7236 172.812 27.4096 173.358 31.1655H169.534C169.101 28.9119 167.44 27.9331 165.596 27.9331C163.297 27.9331 161.476 29.868 161.476 33.2369C161.476 36.7196 163.274 38.5862 165.641 38.5862C167.349 38.5862 169.147 37.8578 169.648 35.3539Z" fill="white"/>
</g>
<defs>
<filter id="filter0_d_3460_249438" x="0.500544" y="0.304024" width="204.71" height="86.0855" filterUnits="userSpaceOnUse" color-interpolation-filters="sRGB">
<feFlood flood-opacity="0" result="BackgroundImageFix"/>
<feColorMatrix in="SourceAlpha" type="matrix" values="0 0 0 0 0 0 0 0 0 0 0 0 0 0 0 0 0 0 127 0" result="hardAlpha"/>
<feOffset dy="10.3468"/>
<feGaussianBlur stdDeviation="9.1052"/>
<feColorMatrix type="matrix" values="0 0 0 0 0 0 0 0 0 0 0 0 0 0 0 0 0 0 0.24 0"/>
<feBlend mode="normal" in2="BackgroundImageFix" result="effect1_dropShadow_3460_249438"/>
<feBlend mode="normal" in="SourceGraphic" in2="effect1_dropShadow_3460_249438" result="shape"/>
</filter>
<radialGradient id="paint0_radial_3460_249438" cx="0" cy="0" r="1" gradientUnits="userSpaceOnUse" gradientTransform="translate(18.711 57.8323) rotate(-15.5592) scale(184.552 150.81)">
<stop offset="0.185332" stop-color="#414A56"/>
<stop offset="0.771558" stop-color="#696B84"/>
</radialGradient>
</defs>
</svg>
