<svg width="29" height="28" viewBox="0 0 29 28" fill="none" xmlns="http://www.w3.org/2000/svg">
<path fill-rule="evenodd" clip-rule="evenodd" d="M20.0835 4C20.5754 4 20.9741 4.39875 20.9741 4.89063V5.31318C21.4298 5.38594 21.8467 5.50483 22.24 5.70522C23.1337 6.16062 23.8604 6.88728 24.3158 7.78105C24.6007 8.34031 24.7209 8.94713 24.778 9.64577C24.8335 10.3257 24.8335 11.1665 24.8335 12.2146V17.1603C24.8335 18.2084 24.8335 19.0493 24.778 19.7292C24.7209 20.4279 24.6007 21.0347 24.3158 21.594C23.8604 22.4877 23.1337 23.2144 22.24 23.6698C21.6807 23.9547 21.0739 24.0749 20.3752 24.132C19.6953 24.1875 18.8544 24.1875 17.8063 24.1875H12.8607C11.8126 24.1875 10.9717 24.1875 10.2918 24.132C9.59313 24.0749 8.9863 23.9547 8.42704 23.6698C7.53327 23.2144 6.80661 22.4877 6.35122 21.594C6.06626 21.0347 5.94612 20.4279 5.88904 19.7292C5.83348 19.0493 5.83349 18.2084 5.8335 17.1603V12.2147C5.83349 11.1666 5.83348 10.3257 5.88904 9.64577C5.94612 8.94713 6.06626 8.34031 6.35122 7.78105C6.80661 6.88728 7.53327 6.16062 8.42704 5.70522C8.82033 5.50483 9.23715 5.38594 9.69287 5.31318V4.89063C9.69287 4.39875 10.0916 4 10.5835 4C11.0754 4 11.4741 4.39875 11.4741 4.89063V5.19387C11.8909 5.18749 12.3513 5.1875 12.8607 5.1875H17.8063C18.3157 5.1875 18.7761 5.18749 19.1929 5.19387V4.89063C19.1929 4.39875 19.5916 4 20.0835 4ZM9.69287 7.1279V7.26563C9.69287 7.7575 10.0916 8.15625 10.5835 8.15625C11.0754 8.15625 11.4741 7.7575 11.4741 7.26563V6.97533C11.8797 6.96893 12.348 6.96875 12.8991 6.96875H17.7679C18.319 6.96875 18.7873 6.96893 19.1929 6.97533V7.26563C19.1929 7.7575 19.5916 8.15625 20.0835 8.15625C20.5754 8.15625 20.9741 7.7575 20.9741 7.26563V7.1279C21.157 7.17246 21.3034 7.22714 21.4313 7.29232C21.9899 7.57695 22.444 8.03111 22.7287 8.58972C22.8644 8.85602 22.9545 9.20234 23.0026 9.79082C23.0381 10.2253 23.0482 10.7489 23.0511 11.4219H7.61589C7.61876 10.7489 7.62887 10.2253 7.66437 9.79082C7.71245 9.20234 7.80263 8.85602 7.93832 8.58972C8.22294 8.03111 8.67711 7.57695 9.23571 7.29232C9.36364 7.22714 9.51004 7.17246 9.69287 7.1279ZM7.61475 13.2031H23.0522V17.1219C23.0522 18.2173 23.0516 18.9853 23.0026 19.5842C22.9545 20.1727 22.8644 20.519 22.7287 20.7853C22.444 21.3439 21.9899 21.7981 21.4313 22.0827C21.165 22.2184 20.8187 22.3085 20.2302 22.3566C19.6313 22.4056 18.8633 22.4063 17.7679 22.4063H12.8991C11.8037 22.4063 11.0357 22.4056 10.4368 22.3566C9.84834 22.3085 9.50202 22.2184 9.23571 22.0827C8.67711 21.7981 8.22294 21.3439 7.93832 20.7853C7.80263 20.519 7.71245 20.1727 7.66437 19.5842C7.61544 18.9853 7.61475 18.2173 7.61475 17.1219V13.2031ZM19.7866 20.625C20.6064 20.625 21.271 19.9604 21.271 19.1406C21.271 18.3208 20.6064 17.6563 19.7866 17.6563C18.9668 17.6563 18.3022 18.3208 18.3022 19.1406C18.3022 19.9604 18.9668 20.625 19.7866 20.625Z" fill="#131314" fill-opacity="0.4"/>
</svg>
