<svg width="29" height="28" viewBox="0 0 29 28" fill="none" xmlns="http://www.w3.org/2000/svg">
<path fill-rule="evenodd" clip-rule="evenodd" d="M20.939 5C22.2189 5 22.8714 5.126 23.5506 5.4892C24.1775 5.8245 24.6755 6.32251 25.0108 6.94945C25.3461 7.57634 25.4792 8.18053 25.4977 9.27643L25.5 9.56095V17.9946L25.4977 18.2791C25.4792 19.375 25.3461 19.9792 25.0108 20.6061C24.6755 21.2331 24.1775 21.7311 23.5506 22.0664L23.394 22.146C22.7673 22.4482 22.1205 22.5556 20.939 22.5556H8.06095C6.87953 22.5556 6.23267 22.4482 5.606 22.146L5.44945 22.0664C4.82251 21.7311 4.3245 21.2331 3.9892 20.6061C3.65394 19.9792 3.52079 19.375 3.50229 18.2791L3.5 17.9946V9.56095C3.5 8.28108 3.626 7.62858 3.9892 6.94945C4.3245 6.32251 4.82251 5.8245 5.44945 5.4892C6.07634 5.15394 6.68053 5.02079 7.77643 5.00229L8.06095 5H20.939ZM23.4989 11.4444L23.5 17.9946C23.5 18.9726 23.4342 19.3131 23.2472 19.6629C23.0983 19.9413 22.8858 20.1538 22.6074 20.3027C22.2845 20.4754 21.9694 20.5447 21.1537 20.5544L20.939 20.5556H8.06095L7.84629 20.5544C7.03055 20.5447 6.71551 20.4754 6.39265 20.3027C6.11424 20.1538 5.90172 19.9413 5.75283 19.6629C5.56577 19.3131 5.5 18.9726 5.5 17.9946L5.49889 11.4444H23.4989ZM8.06095 7H20.939L21.1537 7.00119C21.9694 7.01084 22.2845 7.08016 22.6074 7.25283C22.8858 7.40172 23.0983 7.61424 23.2472 7.89265C23.4198 8.21551 23.4892 8.53055 23.4988 9.34629L23.4978 9.44444H5.5L5.50119 9.34629C5.51084 8.53055 5.58016 8.21551 5.75283 7.89265C5.90172 7.61424 6.11424 7.40172 6.39265 7.25283C6.74242 7.06577 7.083 7 8.06095 7Z" fill="#131314" fill-opacity="0.4"/>
<path d="M7.83333 16.8889C7.83333 16.5778 7.83333 16.4222 7.89388 16.3034C7.94714 16.1988 8.03213 16.1138 8.13667 16.0606C8.25551 16 8.41108 16 8.72222 16H9.16666C9.4778 16 9.63337 16 9.75221 16.0606C9.85675 16.1138 9.94173 16.1988 9.995 16.3034C10.0555 16.4222 10.0555 16.5778 10.0555 16.8889V17.3334C10.0555 17.6445 10.0555 17.8001 9.995 17.9189C9.94173 18.0234 9.85675 18.1084 9.75221 18.1617C9.63337 18.2222 9.4778 18.2222 9.16666 18.2222H8.72222C8.41108 18.2222 8.25551 18.2222 8.13667 18.1617C8.03213 18.1084 7.94714 18.0234 7.89388 17.9189C7.83333 17.8001 7.83333 17.6445 7.83333 17.3334V16.8889Z" fill="#131314" fill-opacity="0.4"/>
</svg>
