<svg width="28" height="28" viewBox="0 0 28 28" fill="none" xmlns="http://www.w3.org/2000/svg">
<path d="M16.8781 3C19.2869 3 20.4359 3.22189 21.6295 3.86022C22.7091 4.43761 23.5624 5.29088 24.1398 6.3705C24.7781 7.56407 25 8.71311 25 11.1219V16.8781C25 19.2869 24.7781 20.4359 24.1398 21.6295C23.5624 22.7091 22.7091 23.5624 21.6295 24.1398C20.4359 24.7781 19.2869 25 16.8781 25H11.1219C8.71311 25 7.56407 24.7781 6.3705 24.1398C5.29088 23.5624 4.43761 22.7091 3.86022 21.6295C3.22189 20.4359 3 19.2869 3 16.8781V11.1219C3 8.71311 3.22189 7.56407 3.86022 6.3705C4.43761 5.29088 5.29088 4.43761 6.3705 3.86022C7.56407 3.22189 8.71311 3 11.1219 3H16.8781ZM16.8781 5H11.1219C9.01504 5 8.17792 5.16166 7.31369 5.62385C6.58261 6.01484 6.01484 6.58261 5.62385 7.31369C5.16166 8.17792 5 9.01504 5 11.1219V16.8781C5 18.985 5.16166 19.8221 5.62385 20.6863C6.01484 21.4174 6.58261 21.9852 7.31369 22.3762C8.17792 22.8383 9.01504 23 11.1219 23H16.8781C18.985 23 19.8221 22.8383 20.6863 22.3762C21.4174 21.9852 21.9852 21.4174 22.3762 20.6863C22.8383 19.8221 23 18.985 23 16.8781V11.1219C23 9.01504 22.8383 8.17792 22.3762 7.31369C21.9852 6.58261 21.4174 6.01484 20.6863 5.62385C19.8221 5.16166 18.985 5 16.8781 5ZM14 9C14.5098 9 14.9305 9.38148 14.9922 9.87456L15 10L14.9989 13H18C18.5098 13 18.9305 13.3815 18.9922 13.8746L19 14C19 14.5098 18.6185 14.9305 18.1254 14.9922L18 15H14.9989L15 18C15 18.5098 14.6185 18.9305 14.1254 18.9922L14 19C13.4902 19 13.0695 18.6185 13.0078 18.1254L13 18L12.9989 15H10C9.4902 15 9.0695 14.6185 9.00779 14.1254L9 14C9 13.4902 9.38148 13.0695 9.87456 13.0078L10 13H12.9989L13 10C13 9.4902 13.3815 9.0695 13.8746 9.00779L14 9Z" fill="#131314" fill-opacity="0.4"/>
</svg>
