<svg width="32" height="32" viewBox="0 0 32 32" fill="none" xmlns="http://www.w3.org/2000/svg">
<path fill-rule="evenodd" clip-rule="evenodd" d="M16 12.875C14.9645 12.875 14.125 13.7145 14.125 14.75C14.125 15.7855 14.9645 16.625 16 16.625C17.0355 16.625 17.875 15.7855 17.875 14.75C17.875 13.7145 17.0355 12.875 16 12.875ZM12.25 14.75C12.25 12.6789 13.9289 11 16 11C18.0711 11 19.75 12.6789 19.75 14.75C19.75 16.8211 18.0711 18.5 16 18.5C13.9289 18.5 12.25 16.8211 12.25 14.75Z" fill="#131314" fill-opacity="0.8"/>
<path fill-rule="evenodd" clip-rule="evenodd" d="M12.4097 6C10.3969 6 9.48454 6.17225 8.55789 6.66783C7.74549 7.10231 7.10231 7.74549 6.66783 8.55789C6.17225 9.48454 6 10.3969 6 12.4097V19.5903C6 21.6031 6.17225 22.5155 6.66783 23.4421C7.10231 24.2545 7.74549 24.8977 8.55789 25.3322C9.48454 25.8277 10.3969 26 12.4097 26H19.5903C21.6031 26 22.5155 25.8277 23.4421 25.3322C24.2545 24.8977 24.8977 24.2545 25.3322 23.4421C25.8277 22.5155 26 21.6031 26 19.5903V12.4097C26 10.3969 25.8277 9.48454 25.3322 8.55789C24.8977 7.74549 24.2545 7.10231 23.4421 6.66783C22.5155 6.17225 21.6031 6 19.5903 6H12.4097ZM19.5903 24.125C20.5645 24.125 21.1822 24.0809 21.6219 24.0011C20.1998 22.5348 18.2092 21.625 16.0059 21.625C13.8016 21.625 11.8103 22.5356 10.3881 24.0029C10.8272 24.0815 11.4429 24.125 12.4097 24.125H19.5903ZM9.44213 8.32123C9.95806 8.04531 10.496 7.875 12.4097 7.875H19.5903C21.504 7.875 22.0419 8.04531 22.5579 8.32123C23.0435 8.58096 23.419 8.95649 23.6788 9.44213C23.9547 9.95806 24.125 10.496 24.125 12.4097V19.5903C24.125 21.504 23.9547 22.0419 23.6788 22.5579C23.5768 22.7485 23.457 22.9222 23.3197 23.0786C21.5433 21.0402 18.9253 19.75 16.0059 19.75C13.0832 19.75 10.4627 21.0431 8.68621 23.0853C8.54643 22.9272 8.42465 22.7512 8.32123 22.5579C8.04531 22.0419 7.875 21.504 7.875 19.5903V12.4097C7.875 10.496 8.04531 9.95806 8.32123 9.44213C8.58096 8.95649 8.95649 8.58096 9.44213 8.32123ZM12.25 14.75C12.25 12.6789 13.9289 11 16 11C18.0711 11 19.75 12.6789 19.75 14.75C19.75 16.8211 18.0711 18.5 16 18.5C13.9289 18.5 12.25 16.8211 12.25 14.75ZM16 12.875C14.9645 12.875 14.125 13.7145 14.125 14.75C14.125 15.7855 14.9645 16.625 16 16.625C17.0355 16.625 17.875 15.7855 17.875 14.75C17.875 13.7145 17.0355 12.875 16 12.875Z" fill="#131314" fill-opacity="0.8"/>
</svg>
