<svg width="29" height="28" viewBox="0 0 29 28" fill="none" xmlns="http://www.w3.org/2000/svg">
<path d="M13.2777 17.6255C13.2368 17.6706 13.1987 17.7182 13.1637 17.768C13.1277 17.821 13.0989 17.8785 13.0782 17.939C13.0508 17.9928 13.0315 18.0505 13.0212 18.11C13.0165 18.1732 13.0165 18.2367 13.0212 18.3C13.0179 18.4246 13.044 18.5483 13.0972 18.661C13.1398 18.7789 13.2079 18.886 13.2965 18.9746C13.3852 19.0633 13.4923 19.1313 13.6102 19.174C13.7239 19.2243 13.8468 19.2502 13.9712 19.2502C14.0955 19.2502 14.2184 19.2243 14.3322 19.174C14.45 19.1313 14.5571 19.0633 14.6458 18.9746C14.7344 18.886 14.8025 18.7789 14.8451 18.661C14.8873 18.5455 14.9067 18.4229 14.9022 18.3C14.9029 18.175 14.8789 18.051 14.8316 17.9353C14.7844 17.8195 14.7147 17.7143 14.6266 17.6255C14.5383 17.5365 14.4333 17.4658 14.3175 17.4176C14.2017 17.3693 14.0776 17.3445 13.9522 17.3445C13.8267 17.3445 13.7026 17.3693 13.5868 17.4176C13.471 17.4658 13.366 17.5365 13.2777 17.6255ZM13.9522 5C12.0732 5 10.2365 5.55717 8.67423 6.60104C7.11197 7.64491 5.89433 9.12861 5.1753 10.8645C4.45626 12.6004 4.26813 14.5105 4.63469 16.3534C5.00125 18.1962 5.90604 19.8889 7.23464 21.2175C8.56324 22.5461 10.256 23.4509 12.0988 23.8175C13.9416 24.184 15.8517 23.9959 17.5876 23.2769C19.3235 22.5578 20.8072 21.3402 21.8511 19.7779C22.895 18.2156 23.4521 16.3789 23.4521 14.5C23.4521 13.2524 23.2064 12.0171 22.729 10.8645C22.2516 9.71191 21.5518 8.66464 20.6697 7.78248C19.7875 6.90033 18.7402 6.20056 17.5876 5.72314C16.4351 5.24572 15.1997 5 13.9522 5ZM13.9522 22.1C12.449 22.1 10.9796 21.6543 9.72982 20.8192C8.48 19.9841 7.50589 18.7971 6.93067 17.4084C6.35544 16.0197 6.20494 14.4916 6.49818 13.0173C6.79143 11.5431 7.51526 10.1889 8.57814 9.12599C9.64102 8.06311 10.9952 7.33928 12.4695 7.04603C13.9437 6.75278 15.4718 6.90329 16.8605 7.47852C18.2493 8.05374 19.4362 9.02785 20.2713 10.2777C21.1064 11.5275 21.5521 12.9969 21.5521 14.5C21.5521 16.5156 20.7514 18.4487 19.3262 19.874C17.9009 21.2993 15.9678 22.1 13.9522 22.1ZM13.9522 9.75C13.4516 9.74968 12.9597 9.88121 12.5261 10.1314C12.0925 10.3815 11.7324 10.7415 11.4822 11.175C11.4134 11.2831 11.3673 11.404 11.3465 11.5305C11.3257 11.6569 11.3307 11.7862 11.3611 11.9107C11.3916 12.0351 11.447 12.1521 11.5238 12.2546C11.6007 12.3571 11.6975 12.443 11.8084 12.5071C11.9194 12.5712 12.0421 12.6123 12.1693 12.6277C12.2965 12.6432 12.4255 12.6327 12.5486 12.597C12.6716 12.5613 12.7862 12.5011 12.8853 12.42C12.9845 12.3389 13.0663 12.2385 13.1257 12.125C13.2093 11.98 13.3299 11.8597 13.475 11.7763C13.6201 11.6929 13.7848 11.6493 13.9522 11.65C14.2041 11.65 14.4457 11.7501 14.6239 11.9282C14.8021 12.1064 14.9022 12.348 14.9022 12.6C14.9022 12.852 14.8021 13.0936 14.6239 13.2717C14.4457 13.4499 14.2041 13.55 13.9522 13.55C13.7002 13.55 13.4586 13.6501 13.2804 13.8282C13.1022 14.0064 13.0022 14.248 13.0022 14.5V15.45C13.0022 15.702 13.1022 15.9436 13.2804 16.1217C13.4586 16.2999 13.7002 16.4 13.9522 16.4C14.2041 16.4 14.4457 16.2999 14.6239 16.1217C14.8021 15.9436 14.9022 15.702 14.9022 15.45V15.279C15.5305 15.051 16.0586 14.6095 16.3944 14.0315C16.7301 13.4536 16.8521 12.776 16.7389 12.1173C16.6257 11.4586 16.2846 10.8606 15.7752 10.4278C15.2658 9.99511 14.6205 9.75518 13.9522 9.75Z" fill="#131314" fill-opacity="0.4"/>
</svg>
