<svg width="32" height="32" viewBox="0 0 32 32" fill="none" xmlns="http://www.w3.org/2000/svg">
<g clip-path="url(#clip0_3460_249872)">
<g filter="url(#filter0_d_3460_249872)">
<path fill-rule="evenodd" clip-rule="evenodd" d="M16.2292 7.25106C16.0802 7.20288 15.9198 7.20288 15.7708 7.25106C15.7545 7.25636 15.6851 7.28061 15.5013 7.43599C15.3075 7.59978 15.0692 7.83587 14.6891 8.21427L8.0574 14.8168C7.59244 15.2798 7.49322 15.3886 7.42514 15.4992C7.3506 15.6203 7.29567 15.7524 7.26236 15.8905C7.23195 16.0166 7.2248 16.1634 7.2248 16.8181V22.9393C7.2248 23.4744 7.22566 23.8092 7.24636 24.0614C7.266 24.3007 7.29781 24.3667 7.30562 24.3819C7.37672 24.5209 7.49017 24.6338 7.6297 24.7046C7.64504 24.7124 7.71129 24.7441 7.95165 24.7636C8.20499 24.7842 8.54121 24.7851 9.07871 24.7851H12.4158V20.8474C12.4158 18.8766 14.0205 17.2789 16 17.2789C17.9795 17.2789 19.5842 18.8766 19.5842 20.8474V24.7851H22.9213C23.4588 24.7851 23.795 24.7842 24.0484 24.7636C24.2887 24.7441 24.355 24.7124 24.3703 24.7046C24.5098 24.6338 24.6233 24.5209 24.6944 24.3819C24.7022 24.3667 24.734 24.3007 24.7536 24.0614C24.7743 23.8092 24.7752 23.4744 24.7752 22.9393V16.8181C24.7752 16.1634 24.7681 16.0166 24.7376 15.8905C24.7043 15.7524 24.6494 15.6203 24.5749 15.4992C24.5068 15.3886 24.4076 15.2798 23.9426 14.8168L17.3109 8.21427C16.9308 7.83587 16.6925 7.59978 16.4987 7.43599C16.3149 7.28061 16.2455 7.25636 16.2292 7.25106ZM15.0834 5.14454C15.6791 4.95182 16.3209 4.95182 16.9166 5.14454C17.3236 5.27618 17.6494 5.50314 17.9385 5.74747C18.21 5.97691 18.5128 6.27842 18.8549 6.61909L25.5157 13.2507C25.5391 13.2739 25.5622 13.2969 25.5851 13.3197C25.9448 13.6772 26.2483 13.9789 26.4717 14.3419C26.6682 14.6612 26.8131 15.0093 26.9009 15.3734C27.0007 15.7873 27.0003 16.2144 27 16.7203C26.9999 16.7526 26.9999 16.7852 26.9999 16.8181V22.9803C26.9999 23.4621 26.9999 23.8884 26.9709 24.2418C26.9401 24.6181 26.8708 25.0079 26.6766 25.3875C26.3922 25.9432 25.9384 26.395 25.3803 26.6781C24.9991 26.8715 24.6074 26.9404 24.2295 26.9712C23.8746 27 23.4464 27 22.9625 27H18.7051C17.962 27 17.3595 26.4002 17.3595 25.6604V20.8474C17.3595 20.0999 16.7509 19.4938 16 19.4938C15.2491 19.4938 14.6405 20.0999 14.6405 20.8474V25.6604C14.6405 26.4002 14.038 27 13.2949 27H9.03751C8.55363 27 8.12539 27 7.77049 26.9712C7.39255 26.9404 7.00094 26.8715 6.61971 26.6781C6.06157 26.395 5.60779 25.9432 5.3234 25.3875C5.12916 25.0079 5.05993 24.6181 5.02905 24.2418C5.00006 23.8884 5.00008 23.4621 5.0001 22.9803L5.0001 16.8181C5.0001 16.7852 5.00008 16.7526 5.00005 16.7204C4.99965 16.2144 4.99931 15.7874 5.09913 15.3734C5.18694 15.0093 5.33175 14.6612 5.52827 14.3419C5.75169 13.9789 6.0552 13.6772 6.41485 13.3197C6.43777 13.2969 6.46092 13.2739 6.4843 13.2507L13.1451 6.61907C13.4873 6.27841 13.7901 5.97691 14.0615 5.74747C14.3506 5.50314 14.6764 5.27618 15.0834 5.14454Z" fill="#131314" fill-opacity="0.8" shape-rendering="crispEdges"/>
</g>
</g>
<rect x="25" y="2" width="6" height="6" rx="3" fill="#FF3347"/>
<defs>
<filter id="filter0_d_3460_249872" x="-1.6" y="-1.6" width="35.2" height="35.2" filterUnits="userSpaceOnUse" color-interpolation-filters="sRGB">
<feFlood flood-opacity="0" result="BackgroundImageFix"/>
<feColorMatrix in="SourceAlpha" type="matrix" values="0 0 0 0 0 0 0 0 0 0 0 0 0 0 0 0 0 0 127 0" result="hardAlpha"/>
<feOffset/>
<feGaussianBlur stdDeviation="3.3"/>
<feComposite in2="hardAlpha" operator="out"/>
<feColorMatrix type="matrix" values="0 0 0 0 0.0156863 0 0 0 0 0.780392 0 0 0 0 0.34902 0 0 0 0.15 0"/>
<feBlend mode="normal" in2="BackgroundImageFix" result="effect1_dropShadow_3460_249872"/>
<feBlend mode="normal" in="SourceGraphic" in2="effect1_dropShadow_3460_249872" result="shape"/>
</filter>
<clipPath id="clip0_3460_249872">
<rect width="28" height="28" fill="white" transform="translate(2 2)"/>
</clipPath>
</defs>
</svg>
