<svg width="132" height="207" viewBox="0 0 132 207" fill="none" xmlns="http://www.w3.org/2000/svg">
<g opacity="0.08" filter="url(#filter0_f_3460_249401)">
<path d="M147.519 181.036C214.68 180.929 269.109 172.508 269.088 162.227C269.077 156.574 283.604 136.049 257.616 132.677C236.337 129.915 180.886 137.12 150.65 137.169C83.4876 137.275 25.8528 152.333 25.8736 162.614C25.8944 172.895 80.3567 181.143 147.519 181.036Z" fill="#66481A"/>
</g>
<g opacity="0.5" filter="url(#filter1_f_3460_249401)">
<path d="M177.367 149.822C233.534 149.733 259.665 114.746 259.665 114.746C259.665 114.746 209.973 130.062 153.806 130.151C97.639 130.24 39.4857 131.227 39.4907 133.706C39.4957 136.185 121.2 149.912 177.367 149.822Z" fill="#C4C4C4"/>
</g>
<path d="M40.75 27.6836L194.515 42.8237V157.025L40.75 141.885V27.6836Z" fill="url(#paint0_radial_3460_249401)"/>
<path d="M40.75 27.6856L194.515 42.8257L254.333 11.348L105.394 0.0418695C105.032 0.0143686 104.668 0.075273 104.335 0.219346L40.75 27.6856Z" fill="#D19C4C"/>
<path d="M70.6172 4.80333L224.383 19.9434L254.38 11.348L104.89 0L70.6172 4.80333Z" fill="url(#paint1_radial_3460_249401)"/>
<path d="M40.75 27.6849L195.584 42.825L226.473 22.7868L78.9775 8.56641L40.75 27.6849Z" fill="url(#paint2_radial_3460_249401)"/>
<defs>
<filter id="filter0_f_3460_249401" x="0.182047" y="106.355" width="298.635" height="100.374" filterUnits="userSpaceOnUse" color-interpolation-filters="sRGB">
<feFlood flood-opacity="0" result="BackgroundImageFix"/>
<feBlend mode="normal" in="SourceGraphic" in2="BackgroundImageFix" result="shape"/>
<feGaussianBlur stdDeviation="12.8457" result="effect1_foregroundBlur_3460_249401"/>
</filter>
<filter id="filter1_f_3460_249401" x="33.393" y="108.648" width="232.369" height="47.2727" filterUnits="userSpaceOnUse" color-interpolation-filters="sRGB">
<feFlood flood-opacity="0" result="BackgroundImageFix"/>
<feBlend mode="normal" in="SourceGraphic" in2="BackgroundImageFix" result="shape"/>
<feGaussianBlur stdDeviation="3.04885" result="effect1_foregroundBlur_3460_249401"/>
</filter>
<radialGradient id="paint0_radial_3460_249401" cx="0" cy="0" r="1" gradientUnits="userSpaceOnUse" gradientTransform="translate(187.788 151.054) rotate(-146.821) scale(130.899 114.034)">
<stop stop-color="#CA8D32"/>
<stop offset="1" stop-color="#F2C888"/>
</radialGradient>
<radialGradient id="paint1_radial_3460_249401" cx="0" cy="0" r="1" gradientUnits="userSpaceOnUse" gradientTransform="translate(304.316 15.1803) rotate(-177.845) scale(207.609 17.2548)">
<stop stop-color="#DEAA5D"/>
<stop offset="1" stop-color="#F2D3A2"/>
</radialGradient>
<radialGradient id="paint2_radial_3460_249401" cx="0" cy="0" r="1" gradientUnits="userSpaceOnUse" gradientTransform="translate(276.955 34.6429) rotate(-176.341) scale(210.163 29.6006)">
<stop stop-color="#EAB970"/>
<stop offset="1" stop-color="#FBDBA9"/>
</radialGradient>
</defs>
</svg>
