<svg width="36" height="35" viewBox="0 0 36 35" fill="none" xmlns="http://www.w3.org/2000/svg">
<path d="M21.75 20C22.2032 20 22.6199 20.117 23 20.3509C23.3801 20.5702 23.6798 20.8699 23.8991 21.25C24.133 21.6301 24.25 22.0468 24.25 22.5C24.25 22.9386 24.133 23.3553 23.8991 23.75C23.6798 24.1301 23.3801 24.4371 23 24.6711C22.6199 24.8904 22.2032 25 21.75 25C21.3114 25 20.8947 24.8904 20.5 24.6711C20.1199 24.4371 19.8129 24.1301 19.5789 23.75C19.3596 23.3553 19.25 22.9386 19.25 22.5C19.25 22.0468 19.3596 21.6301 19.5789 21.25C19.8129 20.8699 20.1199 20.5702 20.5 20.3509C20.8947 20.117 21.3114 20 21.75 20ZM11.75 10C10.9605 10 10.3465 10.2193 9.90789 10.6579C9.4693 11.0965 9.25 11.7105 9.25 12.5H26.75C26.75 11.7105 26.5307 11.0965 26.0921 10.6579C25.6535 10.2193 25.0395 10 24.25 10H11.75ZM24.25 7.5C25.1711 7.5 26.0117 7.7193 26.7719 8.15789C27.5468 8.59649 28.1535 9.20322 28.5921 9.97807C29.0307 10.7383 29.25 11.5789 29.25 12.5V15H6.75V12.5C6.75 11.5789 6.9693 10.7383 7.40789 9.97807C7.86111 9.20322 8.46784 8.59649 9.22807 8.15789C10.0029 7.7193 10.8436 7.5 11.75 7.5H24.25ZM9.25 25C9.25 25.7895 9.4693 26.4035 9.90789 26.8421C10.3465 27.2807 10.9605 27.5 11.75 27.5H24.25C25.0395 27.5 25.6535 27.2807 26.0921 26.8421C26.5307 26.4035 26.75 25.7895 26.75 25V15H9.25V25ZM29.25 12.5V25C29.25 25.9064 29.0307 26.7471 28.5921 27.5219C28.1535 28.2822 27.5468 28.8889 26.7719 29.3421C26.0117 29.7807 25.1711 30 24.25 30H11.75C10.8436 30 10.0029 29.7807 9.22807 29.3421C8.46784 28.8889 7.86111 28.2822 7.40789 27.5219C6.9693 26.7471 6.75 25.9064 6.75 25V12.5H29.25ZM10.5 6.25C10.5 5.89912 10.6243 5.60672 10.8728 5.37281C11.1213 5.12427 11.4137 5 11.75 5C12.1009 5 12.3933 5.12427 12.6272 5.37281C12.8757 5.60672 13 5.89912 13 6.25V8.75C13 9.08626 12.8757 9.37865 12.6272 9.62719C12.3933 9.87573 12.1009 10 11.75 10C11.4137 10 11.1213 9.87573 10.8728 9.62719C10.6243 9.37865 10.5 9.08626 10.5 8.75V6.25ZM25.5 8.75C25.5 9.08626 25.3757 9.37865 25.1272 9.62719C24.8933 9.87573 24.6009 10 24.25 10C23.9137 10 23.6213 9.87573 23.3728 9.62719C23.1243 9.37865 23 9.08626 23 8.75V6.25C23 5.89912 23.1243 5.60672 23.3728 5.37281C23.6213 5.12427 23.9137 5 24.25 5C24.6009 5 24.8933 5.12427 25.1272 5.37281C25.3757 5.60672 25.5 5.89912 25.5 6.25V8.75Z" fill="#131314" fill-opacity="0.4"/>
</svg>
