<svg width="30" height="25" viewBox="0 0 30 25" fill="none" xmlns="http://www.w3.org/2000/svg">
<path d="M21.9879 0C24.7739 0 25.7841 0.29008 26.8026 0.83479C27.8212 1.3795 28.6205 2.17884 29.1652 3.19736C29.7099 4.21588 30 5.22614 30 8.01214V16.9879C30 19.7739 29.7099 20.7841 29.1652 21.8026C28.6205 22.8212 27.8212 23.6205 26.8026 24.1652C25.7841 24.7099 24.7739 25 21.9879 25H8.01214C5.22614 25 4.21588 24.7099 3.19736 24.1652C2.17884 23.6205 1.3795 22.8212 0.83479 21.8026C0.29008 20.7841 0 19.7739 0 16.9879V8.01214C0 5.22614 0.29008 4.21588 0.83479 3.19736C1.3795 2.17884 2.17884 1.3795 3.19736 0.83479C4.21588 0.29008 5.22614 0 8.01214 0H21.9879ZM27.4988 11.25H2.49875L2.5 17.6927C2.5 19.3643 2.67405 19.9705 3.00087 20.5816C3.3277 21.1927 3.8073 21.6723 4.41841 21.9991C4.99133 22.3055 5.5599 22.4776 7.00608 22.498L7.30728 22.5H22.6927C24.3643 22.5 24.9705 22.326 25.5816 21.9991C26.1927 21.6723 26.6723 21.1927 26.9991 20.5816C27.3055 20.0087 27.4776 19.4401 27.498 17.9939L27.5 17.6927L27.4988 11.25ZM8.43175 15C8.94794 15 9.15682 15.058 9.36053 15.167C9.56423 15.2759 9.7241 15.4358 9.83304 15.6395C9.94198 15.8432 10 16.0521 10 16.5683V17.1817C10 17.6979 9.94198 17.9068 9.83304 18.1105C9.7241 18.3142 9.56423 18.4741 9.36053 18.583C9.15682 18.692 8.94794 18.75 8.43175 18.75H7.81825C7.30206 18.75 7.09317 18.692 6.88947 18.583C6.68577 18.4741 6.5259 18.3142 6.41696 18.1105C6.30802 17.9068 6.25 17.6979 6.25 17.1817V16.5683C6.25 16.0521 6.30802 15.8432 6.41696 15.6395C6.5259 15.4358 6.68577 15.2759 6.88947 15.167C7.09317 15.058 7.30206 15 7.81825 15H8.43175ZM22.6927 2.5H7.30728C5.63569 2.5 5.02953 2.67405 4.41841 3.00087C3.8073 3.3277 3.3277 3.8073 3.00087 4.41841C2.69447 4.99133 2.52235 5.5599 2.50203 7.00608L2.49875 7.5H27.4988L27.5 7.30729C27.5 5.63569 27.326 5.02953 26.9991 4.41841C26.6723 3.8073 26.1927 3.3277 25.5816 3.00087C25.0087 2.69447 24.4401 2.52235 22.9939 2.50203L22.6927 2.5Z" fill="#131314" fill-opacity="0.8"/>
</svg>
