<svg width="22" height="24" viewBox="0 0 22 24" fill="none" xmlns="http://www.w3.org/2000/svg">
<path d="M11.0521 0.599609C15.771 0.599609 19.1565 4.45243 19.1565 9.45106V11.331C19.1565 11.5998 19.3836 11.956 20.0033 12.5954C20.0827 12.6774 20.1576 12.7534 20.321 12.9189C21.5917 14.2077 22.0946 14.9502 22.0946 16.1448C22.0946 16.6672 22.0336 17.0745 21.78 17.5625C21.2438 18.5938 20.1072 19.1685 18.408 19.1685L16.1612 19.1697C15.4218 21.9109 13.6574 23.3996 11.0473 23.3996C8.40934 23.3996 6.63533 21.879 5.91007 19.0816L5.93263 19.1685H3.68656C1.93784 19.1685 0.788997 18.5782 0.275786 17.5107C0.0513655 17.0438 0 16.6649 0 16.1448C0 14.9502 0.502859 14.2077 1.77359 12.9189C1.93703 12.7534 2.01185 12.6774 2.09133 12.5954C2.71099 11.956 2.93811 11.5998 2.93811 11.331V9.45106C2.93811 4.45437 6.33189 0.599609 11.0521 0.599609ZM13.9454 19.1707H8.14919C8.68503 20.6358 9.60853 21.2842 11.0473 21.2842C12.4861 21.2842 13.4096 20.6358 13.9454 19.1707ZM11.0521 2.71505C7.56442 2.71505 5.05355 5.56698 5.05355 9.45106V11.331C5.05355 12.333 4.59586 13.0509 3.61036 14.0677C3.52425 14.1565 3.44298 14.2391 3.27997 14.4041C2.4022 15.2944 2.11544 15.7178 2.11544 16.1448C2.11544 16.3706 2.13136 16.488 2.18234 16.5941C2.30844 16.8564 2.6912 17.053 3.68656 17.053H18.408C19.3718 17.053 19.7635 16.855 19.903 16.5867C19.9611 16.4749 19.9792 16.3544 19.9792 16.1448C19.9792 15.7178 19.6924 15.2944 18.8146 14.4041C18.6516 14.2391 18.5703 14.1565 18.4842 14.0677C17.4987 13.0509 17.041 12.333 17.041 11.331V9.45106C17.041 5.56426 14.5375 2.71505 11.0521 2.71505Z" fill="#131314" fill-opacity="0.8"/>
</svg>
