<svg width="160" height="81" viewBox="0 0 160 81" fill="none" xmlns="http://www.w3.org/2000/svg">
<g filter="url(#filter0_d_3460_249311)">
<rect x="17.3335" y="8" width="125.667" height="46" rx="23" fill="url(#paint0_radial_3460_249311)"/>
<path fill-rule="evenodd" clip-rule="evenodd" d="M41.4283 26.4961C40.2409 27.3788 38.869 28.2097 37.4507 28.6218C36.0324 29.0339 34.4285 29.0675 32.9527 28.9586C33.8358 30.146 34.6672 31.5179 35.0797 32.9361C35.4919 34.3537 35.5271 35.9553 35.4199 37.4291C36.6065 36.5485 37.9775 35.7196 39.3951 35.3077C40.8128 34.8958 42.4147 34.861 43.8886 34.9686C43.0077 33.7819 42.1784 32.411 41.7661 30.9934C41.3537 29.5752 41.3197 27.9716 41.4283 26.4961ZM42.0325 22.4511C40.3598 24.0152 38.4073 25.5256 36.6949 26.0231C34.9825 26.5206 32.5241 26.2918 30.2732 25.8676C30.0437 25.8244 29.8164 25.7791 29.5923 25.7324C29.0917 25.628 28.6069 25.5163 28.1491 25.4035C28.0173 25.3711 27.8878 25.3385 27.7608 25.306C27.1558 25.1513 26.6312 26.1059 27.0861 26.5337C27.1816 26.6235 27.2785 26.7154 27.3766 26.8092C27.7172 27.1352 28.0714 27.4846 28.4278 27.8513C28.5874 28.0154 28.7475 28.183 28.907 28.3535C30.4717 30.0263 31.9828 31.979 32.4808 33.6912C32.9786 35.4031 32.7533 37.8553 32.333 40.0996C32.2904 40.3273 32.2457 40.5529 32.1996 40.7753C32.0959 41.2755 31.9849 41.7598 31.8728 42.2171C31.8403 42.3494 31.8078 42.4794 31.7753 42.6068C31.6213 43.2115 32.5749 43.7355 33.0027 43.2814C33.0929 43.1856 33.1852 43.0885 33.2795 42.9902C33.6054 42.6504 33.9547 42.297 34.3214 41.9413C34.4845 41.7832 34.6509 41.6246 34.8203 41.4665C36.4895 39.9086 38.4388 38.4039 40.1509 37.9064C41.8629 37.409 44.3156 37.6348 46.5602 38.0556C46.7879 38.0983 47.0135 38.143 47.236 38.1891C47.7363 38.2929 48.2208 38.404 48.6781 38.5162C48.8104 38.5487 48.9404 38.5813 49.0679 38.6138C49.6727 38.7679 50.1966 37.8146 49.7423 37.3867C49.6465 37.2965 49.5493 37.2042 49.451 37.1099C49.1111 36.784 48.7576 36.4346 48.4018 36.0679C48.2435 35.9048 48.0849 35.7383 47.9267 35.569C46.3683 33.8997 44.8629 31.9503 44.365 30.2383C43.867 28.5261 44.0954 26.0681 44.5191 23.8176C44.5623 23.5882 44.6075 23.361 44.6542 23.137C44.7585 22.6364 44.8701 22.1517 44.9827 21.694C45.0152 21.5623 45.0477 21.4328 45.0801 21.3058C45.2347 20.7009 44.28 20.1761 43.8522 20.6309C43.7624 20.7264 43.6705 20.8233 43.5766 20.9213C43.2507 21.2617 42.9013 21.6158 42.5347 21.9722C42.3706 22.1317 42.203 22.2917 42.0325 22.4511Z" fill="white"/>
<path d="M37.4507 28.6218C38.869 28.2097 40.2409 27.3788 41.4283 26.4961C41.3197 27.9716 41.3537 29.5752 41.7661 30.9934C42.1784 32.411 43.0077 33.7819 43.8886 34.9686C42.4147 34.861 40.8128 34.8958 39.3951 35.3077C37.9775 35.7196 36.6065 36.5485 35.4199 37.4291C35.5271 35.9553 35.4919 34.3537 35.0797 32.9361C34.6672 31.5179 33.8358 30.146 32.9527 28.9586C34.4285 29.0675 36.0324 29.0339 37.4507 28.6218Z" fill="white"/>
<path d="M74.0897 38.5H70.4844V26.3982H64.6233V38.5H61.018V23.2146H74.0897V38.5ZM89.5368 38.5H85.9316V26.3982H82.2209L82.0944 29.5396C81.9257 34.2623 80.8505 38.5 76.9922 38.5H75.917V35.3164H76.3808C78.3416 35.3164 78.5524 31.9009 78.6578 28.3589L78.8054 23.2146H89.5368V38.5ZM106.18 22.9616C110.86 22.9616 114.107 26.103 114.107 30.8678C114.107 35.6327 110.86 38.7741 106.18 38.7741C101.942 38.7741 99.1592 36.2019 98.6532 32.2382H96.1865V38.5H92.5812V23.2146H96.1865V29.0547H98.7165C99.3911 25.344 102.111 22.9616 106.18 22.9616ZM106.18 35.8013C108.436 35.8013 110.291 34.1147 110.291 30.8678C110.291 27.621 108.436 25.9343 106.18 25.9343C103.924 25.9343 102.385 27.621 102.385 30.8678C102.385 34.1147 103.924 35.8013 106.18 35.8013ZM126.837 32.8075H130.379C129.809 36.3495 126.963 38.7741 123.105 38.7741C118.34 38.7741 115.452 35.7381 115.452 30.8468C115.452 26.0187 118.424 22.9616 123.21 22.9616C127.026 22.9616 129.767 25.4494 130.273 28.9282H126.731C126.331 26.8409 124.792 25.9343 123.084 25.9343C120.954 25.9343 119.268 27.7264 119.268 30.8468C119.268 34.0725 120.933 35.8013 123.126 35.8013C124.707 35.8013 126.373 35.1267 126.837 32.8075Z" fill="white"/>
</g>
<defs>
<filter id="filter0_d_3460_249311" x="0.466829" y="0.716666" width="159.4" height="79.7333" filterUnits="userSpaceOnUse" color-interpolation-filters="sRGB">
<feFlood flood-opacity="0" result="BackgroundImageFix"/>
<feColorMatrix in="SourceAlpha" type="matrix" values="0 0 0 0 0 0 0 0 0 0 0 0 0 0 0 0 0 0 127 0" result="hardAlpha"/>
<feOffset dy="9.58333"/>
<feGaussianBlur stdDeviation="8.43333"/>
<feColorMatrix type="matrix" values="0 0 0 0 0.152941 0 0 0 0 0.784314 0 0 0 0 0.0470588 0 0 0 0.24 0"/>
<feBlend mode="normal" in2="BackgroundImageFix" result="effect1_dropShadow_3460_249311"/>
<feBlend mode="normal" in="SourceGraphic" in2="effect1_dropShadow_3460_249311" result="shape"/>
</filter>
<radialGradient id="paint0_radial_3460_249311" cx="0" cy="0" r="1" gradientUnits="userSpaceOnUse" gradientTransform="translate(-7.79985 58.6) rotate(-32.3317) scale(160.911 232.932)">
<stop offset="0.09" stop-color="#27C80C"/>
<stop offset="1" stop-color="#BAFC00"/>
</radialGradient>
</defs>
</svg>
