<svg width="32" height="32" viewBox="0 0 32 32" fill="none" xmlns="http://www.w3.org/2000/svg">
<path d="M26.5554 25.5V23.3889C26.5554 21.4215 25.2099 19.7684 23.3888 19.2997M19.6943 6.80691C21.2417 7.43327 22.3332 8.95027 22.3332 10.7222C22.3332 12.4942 21.2417 14.0112 19.6943 14.6375M21.2777 25.5C21.2777 23.5327 21.2777 22.549 20.9563 21.7731C20.5277 20.7386 19.7058 19.9166 18.6712 19.4881C17.8953 19.1667 16.9116 19.1667 14.9443 19.1667H11.7777C9.81036 19.1667 8.82671 19.1667 8.05078 19.4881C7.01622 19.9166 6.19426 20.7386 5.76573 21.7731C5.44434 22.549 5.44434 23.5327 5.44434 25.5M17.5832 10.7222C17.5832 13.0541 15.6929 14.9444 13.361 14.9444C11.0291 14.9444 9.13878 13.0541 9.13878 10.7222C9.13878 8.39035 11.0291 6.5 13.361 6.5C15.6929 6.5 17.5832 8.39035 17.5832 10.7222Z" stroke="#131314" stroke-opacity="0.8" stroke-width="2" stroke-linecap="round" stroke-linejoin="round"/>
<rect x="25" y="2" width="6" height="6" rx="3" fill="#FF3347"/>
</svg>
