<svg width="24" height="24" viewBox="0 0 24 24" fill="none" xmlns="http://www.w3.org/2000/svg">
<path fill-rule="evenodd" clip-rule="evenodd" d="M7.09939 6.9C7.09939 4.1938 9.2932 2 11.9994 2C14.7056 2 16.8994 4.19381 16.8994 6.9V11.1C16.8994 13.8062 14.7056 16 11.9994 16C9.2932 16 7.09939 13.8062 7.09939 11.1V6.9ZM11.9994 3.8C10.2873 3.8 8.89939 5.18791 8.89939 6.9V11.1C8.89939 12.8121 10.2873 14.2 11.9994 14.2C13.7115 14.2 15.0994 12.8121 15.0994 11.1V6.9C15.0994 5.18792 13.7115 3.8 11.9994 3.8Z" fill="#131314" fill-opacity="0.4"/>
<path d="M19.6789 15.3498C19.9273 14.9193 19.7797 14.3689 19.3492 14.1205C18.9187 13.872 18.3683 14.0197 18.1198 14.4502C16.8929 16.5764 14.6095 18 11.9994 18C9.38924 18 7.10587 16.5764 5.87889 14.4502C5.63046 14.0197 5.08006 13.872 4.64954 14.1205C4.21902 14.3689 4.07141 14.9193 4.31985 15.3498C5.71128 17.7611 8.19777 19.4607 11.0994 19.7547V22.1C11.0994 22.5971 11.5023 23 11.9994 23C12.4964 23 12.8994 22.5971 12.8994 22.1V19.7547C15.801 19.4607 18.2875 17.7611 19.6789 15.3498Z" fill="#131314" fill-opacity="0.4"/>
</svg>
