<svg width="28" height="29" viewBox="0 0 28 29" fill="none" xmlns="http://www.w3.org/2000/svg">
<path fill-rule="evenodd" clip-rule="evenodd" d="M11.8135 4.43043C13.1173 3.48315 14.8828 3.48315 16.1866 4.43043C16.5685 4.70787 16.8677 5.0923 17.1495 5.51759C17.4303 5.94136 17.7509 6.49667 18.1471 7.18289L24.5754 18.317C24.9716 19.0032 25.2922 19.5586 25.5188 20.0136C25.7462 20.4703 25.9295 20.9217 25.9789 21.3911C26.1473 22.9939 25.2646 24.5229 23.7923 25.1784C23.3611 25.3703 22.8786 25.4373 22.3693 25.4687C21.8619 25.5 21.2207 25.5 20.4283 25.5H7.57176C6.77937 25.5 6.13815 25.5 5.63075 25.4687C5.12153 25.4373 4.63899 25.3703 4.20778 25.1784C2.73551 24.5229 1.85277 22.9939 2.02122 21.3911C2.07056 20.9217 2.25388 20.4703 2.48128 20.0136C2.70787 19.5586 3.02848 19.0033 3.42467 18.3171L9.85299 7.18289C10.2492 6.49667 10.5698 5.94136 10.8506 5.51759C11.1324 5.0923 11.4316 4.70787 11.8135 4.43043ZM15.011 6.04846C14.4082 5.61047 13.5919 5.61047 12.9891 6.04846C12.9032 6.11085 12.7633 6.25178 12.5178 6.62235C12.2752 6.98846 11.9852 7.4898 11.5682 8.21197L5.17352 19.288C4.75657 20.0101 4.46739 20.5119 4.27162 20.9051C4.07348 21.303 4.02136 21.4946 4.01027 21.6002C3.93238 22.3412 4.34053 23.0482 5.02126 23.3513C5.11822 23.3944 5.3102 23.4451 5.7539 23.4725C6.19227 23.4995 6.77143 23.5 7.60531 23.5H20.3948C21.2287 23.5 21.8078 23.4995 22.2462 23.4725C22.6899 23.4451 22.8819 23.3944 22.9788 23.3513C23.6596 23.0482 24.0677 22.3412 23.9898 21.6002C23.9787 21.4946 23.9266 21.303 23.7285 20.9051C23.5327 20.5119 23.2435 20.0101 22.8266 19.288L16.4318 8.21197C16.0149 7.4898 15.7249 6.98846 15.4823 6.62235C15.2368 6.25178 15.0969 6.11085 15.011 6.04846Z" fill="#DBAF00"/>
<path fill-rule="evenodd" clip-rule="evenodd" d="M14.0001 10C13.4478 10 13 10.4477 13 11L13.0001 16C13.0001 16.5523 13.4478 17 14.0001 17C14.5523 17 15.0001 16.5523 15.0001 16V11C15.0001 10.4477 14.5523 10 14.0001 10ZM14.0001 18.8C13.3373 18.8 12.8001 19.3373 12.8001 20C12.8001 20.6627 13.3373 21.2 14.0001 21.2C14.6628 21.2 15.2001 20.6627 15.2001 20C15.2001 19.3373 14.6628 18.8 14.0001 18.8Z" fill="#DBAF00"/>
</svg>
