<svg width="32" height="32" viewBox="0 0 32 32" fill="none" xmlns="http://www.w3.org/2000/svg">
<path fill-rule="evenodd" clip-rule="evenodd" d="M21.25 6C21.7419 6 22.1406 6.39875 22.1406 6.89063V7.31318C22.5963 7.38594 23.0132 7.50483 23.4065 7.70522C24.3002 8.16062 25.0269 8.88728 25.4823 9.78105C25.7672 10.3403 25.8874 10.9471 25.9445 11.6458C26 12.3257 26 13.1665 26 14.2146V19.1603C26 20.2084 26 21.0493 25.9445 21.7292C25.8874 22.4279 25.7672 23.0347 25.4823 23.594C25.0269 24.4877 24.3002 25.2144 23.4065 25.6698C22.8472 25.9547 22.2404 26.0749 21.5417 26.132C20.8618 26.1875 20.0209 26.1875 18.9728 26.1875H14.0272C12.9791 26.1875 12.1382 26.1875 11.4583 26.132C10.7596 26.0749 10.1528 25.9547 9.59355 25.6698C8.69978 25.2144 7.97312 24.4877 7.51772 23.594C7.23276 23.0347 7.11262 22.4279 7.05554 21.7292C6.99999 21.0493 6.99999 20.2084 7 19.1603V14.2147C6.99999 13.1666 6.99999 12.3257 7.05554 11.6458C7.11262 10.9471 7.23276 10.3403 7.51772 9.78105C7.97312 8.88728 8.69978 8.16062 9.59355 7.70522C9.98684 7.50483 10.4037 7.38594 10.8594 7.31318V6.89063C10.8594 6.39875 11.2581 6 11.75 6C12.2419 6 12.6406 6.39875 12.6406 6.89063V7.19387C13.0574 7.18749 13.5178 7.1875 14.0272 7.1875H18.9728C19.4822 7.1875 19.9426 7.18749 20.3594 7.19387V6.89063C20.3594 6.39875 20.7581 6 21.25 6ZM10.8594 9.1279V9.26563C10.8594 9.7575 11.2581 10.1563 11.75 10.1563C12.2419 10.1563 12.6406 9.7575 12.6406 9.26563V8.97533C13.0462 8.96893 13.5145 8.96875 14.0656 8.96875H18.9344C19.4855 8.96875 19.9538 8.96893 20.3594 8.97533V9.26563C20.3594 9.7575 20.7581 10.1563 21.25 10.1563C21.7419 10.1563 22.1406 9.7575 22.1406 9.26563V9.1279C22.3235 9.17246 22.4699 9.22714 22.5978 9.29232C23.1564 9.57695 23.6106 10.0311 23.8952 10.5897C24.0309 10.856 24.121 11.2023 24.1691 11.7908C24.2046 12.2253 24.2147 12.7489 24.2176 13.4219H8.78239C8.78526 12.7489 8.79537 12.2253 8.83087 11.7908C8.87895 11.2023 8.96914 10.856 9.10482 10.5897C9.38945 10.0311 9.84361 9.57695 10.4022 9.29232C10.5301 9.22714 10.6765 9.17246 10.8594 9.1279ZM8.78125 15.2031H24.2188V19.1219C24.2188 20.2173 24.2181 20.9853 24.1691 21.5842C24.121 22.1727 24.0309 22.519 23.8952 22.7853C23.6106 23.3439 23.1564 23.7981 22.5978 24.0827C22.3315 24.2184 21.9852 24.3085 21.3967 24.3566C20.7978 24.4056 20.0298 24.4063 18.9344 24.4063H14.0656C12.9702 24.4063 12.2022 24.4056 11.6033 24.3566C11.0148 24.3085 10.6685 24.2184 10.4022 24.0827C9.84361 23.7981 9.38945 23.3439 9.10482 22.7853C8.96914 22.519 8.87895 22.1727 8.83087 21.5842C8.78194 20.9853 8.78125 20.2173 8.78125 19.1219V15.2031ZM20.9531 22.625C21.7729 22.625 22.4375 21.9604 22.4375 21.1406C22.4375 20.3208 21.7729 19.6563 20.9531 19.6563C20.1333 19.6563 19.4688 20.3208 19.4688 21.1406C19.4688 21.9604 20.1333 22.625 20.9531 22.625Z" fill="#131314" fill-opacity="0.8"/>
</svg>
