<svg width="32" height="32" viewBox="0 0 32 32" fill="none" xmlns="http://www.w3.org/2000/svg">
<path fill-rule="evenodd" clip-rule="evenodd" d="M22.439 7C23.7189 7 24.3714 7.126 25.0506 7.4892C25.6775 7.8245 26.1755 8.32251 26.5108 8.94945C26.8461 9.57634 26.9792 10.1805 26.9977 11.2764L27 11.561V19.9946L26.9977 20.2791C26.9792 21.375 26.8461 21.9792 26.5108 22.6061C26.1755 23.2331 25.6775 23.7311 25.0506 24.0664L24.894 24.146C24.2673 24.4482 23.6205 24.5556 22.439 24.5556H9.56095C8.37953 24.5556 7.73267 24.4482 7.106 24.146L6.94945 24.0664C6.32251 23.7311 5.8245 23.2331 5.4892 22.6061C5.15394 21.9792 5.02079 21.375 5.00229 20.2791L5 19.9946V11.561C5 10.2811 5.126 9.62858 5.4892 8.94945C5.8245 8.32251 6.32251 7.8245 6.94945 7.4892C7.57634 7.15394 8.18053 7.02079 9.27643 7.00229L9.56095 7H22.439ZM24.9989 13.4444L25 19.9946C25 20.9726 24.9342 21.3131 24.7472 21.6629C24.5983 21.9413 24.3858 22.1538 24.1074 22.3027C23.7845 22.4754 23.4694 22.5447 22.6537 22.5544L22.439 22.5556H9.56095L9.34629 22.5544C8.53055 22.5447 8.21551 22.4754 7.89265 22.3027C7.61424 22.1538 7.40172 21.9413 7.25283 21.6629C7.06577 21.3131 7 20.9726 7 19.9946L6.99889 13.4444H24.9989ZM9.56095 9H22.439L22.6537 9.00119C23.4694 9.01084 23.7845 9.08016 24.1074 9.25283C24.3858 9.40172 24.5983 9.61424 24.7472 9.89265C24.9198 10.2155 24.9892 10.5306 24.9988 11.3463L24.9978 11.4444H7L7.00119 11.3463C7.01084 10.5306 7.08016 10.2155 7.25283 9.89265C7.40172 9.61424 7.61424 9.40172 7.89265 9.25283C8.24242 9.06577 8.583 9 9.56095 9Z" fill="#131314" fill-opacity="0.8"/>
<path d="M9.33333 18.8889C9.33333 18.5778 9.33333 18.4222 9.39388 18.3034C9.44714 18.1988 9.53213 18.1138 9.63667 18.0606C9.75551 18 9.91108 18 10.2222 18H10.6667C10.9778 18 11.1334 18 11.2522 18.0606C11.3567 18.1138 11.4417 18.1988 11.495 18.3034C11.5555 18.4222 11.5555 18.5778 11.5555 18.8889V19.3334C11.5555 19.6445 11.5555 19.8001 11.495 19.9189C11.4417 20.0234 11.3567 20.1084 11.2522 20.1617C11.1334 20.2222 10.9778 20.2222 10.6667 20.2222H10.2222C9.91108 20.2222 9.75551 20.2222 9.63667 20.1617C9.53213 20.1084 9.44714 20.0234 9.39388 19.9189C9.33333 19.8001 9.33333 19.6445 9.33333 19.3334V18.8889Z" fill="#131314" fill-opacity="0.8"/>
<rect x="25" y="2" width="6" height="6" rx="3" fill="#FF3347"/>
</svg>
