<svg width="29" height="28" viewBox="0 0 29 28" fill="none" xmlns="http://www.w3.org/2000/svg">
<path fill-rule="evenodd" clip-rule="evenodd" d="M18.924 3C20.8822 3.02068 21.8787 3.2317 22.912 3.78431C23.9011 4.31328 24.6833 5.09549 25.2123 6.08458C25.7649 7.11786 25.9759 8.11438 25.9966 10.0726V17.924C25.9759 19.8822 25.7649 20.8787 25.2123 21.912C24.6833 22.9011 23.9011 23.6833 22.912 24.2123C21.8787 24.7649 20.8822 24.9759 18.924 24.9966H11.0726C9.11438 24.9759 8.11786 24.7649 7.08458 24.2123C6.09549 23.6833 5.31328 22.9011 4.78431 21.912C4.2317 20.8787 4.02068 19.8822 4 17.924V10.0726C4.02068 8.11438 4.2317 7.11786 4.78431 6.08458C5.31328 5.09549 6.09549 4.31328 7.08458 3.78431C8.11786 3.2317 9.11438 3.02068 11.0726 3H18.924ZM10.8506 5.00317C9.37134 5.03122 8.70897 5.18363 8.02777 5.54793C7.38723 5.8905 6.8905 6.38723 6.54793 7.02777C6.18363 7.70897 6.03122 8.37134 6.00317 9.85062V18.146C6.03122 19.6252 6.18363 20.2876 6.54793 20.9688C6.62847 21.1194 6.71753 21.262 6.81497 21.3966C9.04944 19.5842 11.897 18.4983 14.9983 18.4983C18.0995 18.4983 20.9471 19.5842 23.1816 21.3966C23.2791 21.262 23.3681 21.1194 23.4486 20.9688C23.813 20.2876 23.9654 19.6252 23.9934 18.146V9.85062C23.9654 8.37134 23.813 7.70897 23.4486 7.02777C23.1061 6.38723 22.6094 5.8905 21.9688 5.54793C21.2876 5.18363 20.6252 5.03122 19.146 5.00317H10.8506ZM19.146 22.9934H10.8506C9.68133 22.9712 9.02245 22.8714 8.46123 22.6506C10.2888 21.2981 12.5501 20.4983 14.9983 20.4983C17.4464 20.4983 19.7078 21.2981 21.5354 22.6506C20.9741 22.8714 20.3153 22.9712 19.146 22.9934Z" fill="#131314" fill-opacity="0.4"/>
<path fill-rule="evenodd" clip-rule="evenodd" d="M14.9983 7.49829C17.6225 7.49829 19.7483 9.62413 19.7483 12.2483C19.7483 14.8725 17.6225 16.9983 14.9983 16.9983C12.3741 16.9983 10.2483 14.8725 10.2483 12.2483C10.2483 9.62413 12.3741 7.49829 14.9983 7.49829ZM12.2483 12.2483C12.2483 10.7287 13.4787 9.49829 14.9983 9.49829C16.5179 9.49829 17.7483 10.7287 17.7483 12.2483C17.7483 13.7679 16.5179 14.9983 14.9983 14.9983C13.4787 14.9983 12.2483 13.7679 12.2483 12.2483Z" fill="#131314" fill-opacity="0.4"/>
</svg>
