<svg width="29" height="28" viewBox="0 0 29 28" fill="none" xmlns="http://www.w3.org/2000/svg">
<path fill-rule="evenodd" clip-rule="evenodd" d="M15.0627 5.25106C14.9137 5.20288 14.7533 5.20288 14.6043 5.25106C14.588 5.25636 14.5186 5.28061 14.3348 5.43599C14.141 5.59978 13.9026 5.83587 13.5226 6.21427L6.89089 12.8168C6.42594 13.2798 6.32671 13.3886 6.25864 13.4992C6.18409 13.6203 6.12916 13.7524 6.09586 13.8905C6.06544 14.0166 6.0583 14.1634 6.0583 14.8181V20.9393C6.0583 21.4744 6.05916 21.8092 6.07986 22.0614C6.0995 22.3007 6.1313 22.3667 6.13912 22.3819C6.21022 22.5209 6.32366 22.6338 6.4632 22.7046C6.47854 22.7124 6.54479 22.7441 6.78514 22.7636C7.03848 22.7842 7.37471 22.7851 7.91221 22.7851H11.2493V18.8474C11.2493 16.8766 12.854 15.2789 14.8335 15.2789C16.813 15.2789 18.4177 16.8766 18.4177 18.8474V22.7851H21.7548C22.2923 22.7851 22.6285 22.7842 22.8818 22.7636C23.1222 22.7441 23.1885 22.7124 23.2038 22.7046C23.3433 22.6338 23.4568 22.5209 23.5279 22.3819C23.5357 22.3667 23.5675 22.3007 23.5871 22.0614C23.6078 21.8092 23.6087 21.4744 23.6087 20.9393V14.8181C23.6087 14.1634 23.6015 14.0166 23.5711 13.8905C23.5378 13.7524 23.4829 13.6203 23.4084 13.4992C23.3403 13.3886 23.2411 13.2798 22.7761 12.8168L16.1444 6.21427C15.7643 5.83587 15.526 5.59978 15.3322 5.43599C15.1484 5.28061 15.079 5.25636 15.0627 5.25106ZM13.9169 3.14454C14.5126 2.95182 15.1544 2.95182 15.7501 3.14454C16.157 3.27618 16.4829 3.50314 16.772 3.74747C17.0434 3.97691 17.3463 4.27842 17.6884 4.61909L24.3492 11.2507C24.3726 11.2739 24.3957 11.2969 24.4186 11.3197C24.7783 11.6772 25.0818 11.9789 25.3052 12.3419C25.5017 12.6612 25.6466 13.0093 25.7344 13.3734C25.8342 13.7873 25.8338 14.2144 25.8334 14.7203C25.8334 14.7526 25.8334 14.7852 25.8334 14.8181V20.9803C25.8334 21.4621 25.8334 21.8884 25.8044 22.2418C25.7736 22.6181 25.7043 23.0079 25.5101 23.3875C25.2257 23.9432 24.7719 24.395 24.2138 24.6781C23.8326 24.8715 23.4409 24.9404 23.063 24.9712C22.7081 25 22.2799 25 21.796 25H17.5386C16.7955 25 16.193 24.4002 16.193 23.6604V18.8474C16.193 18.0999 15.5843 17.4938 14.8335 17.4938C14.0826 17.4938 13.474 18.0999 13.474 18.8474V23.6604C13.474 24.4002 12.8715 25 12.1284 25H7.87101C7.38713 25 6.95889 25 6.60398 24.9712C6.22605 24.9404 5.83444 24.8715 5.4532 24.6781C4.89507 24.395 4.44129 23.9432 4.1569 23.3875C3.96265 23.0079 3.89343 22.6181 3.86255 22.2418C3.83355 21.8884 3.83357 21.4621 3.8336 20.9803L3.8336 14.8181C3.8336 14.7852 3.83357 14.7526 3.83355 14.7204C3.83315 14.2144 3.83281 13.7874 3.93263 13.3734C4.02043 13.0093 4.16525 12.6612 4.36177 12.3419C4.58518 11.9789 4.8887 11.6772 5.24834 11.3197C5.27127 11.2969 5.29442 11.2739 5.31779 11.2507L11.9786 4.61907C12.3207 4.27841 12.6235 3.97691 12.895 3.74747C13.1841 3.50314 13.5099 3.27618 13.9169 3.14454Z" fill="#131314"/>
</svg>
