<svg width="240" height="133" viewBox="0 0 240 133" fill="none" xmlns="http://www.w3.org/2000/svg">
<path d="M178.06 118.556C169.695 124.174 115.893 121.17 69.2407 121.17C67.8129 121.225 61.7301 120.758 50.879 121.17C37.3152 121.686 20.0966 120.31 12.1189 114.186C4.14121 108.061 10.4077 87.7502 11.8218 84.2007C13.7377 79.3916 18.2993 79.0679 20.5656 79.1321C23.1359 76.7415 29.0878 71.3656 32.3337 68.9868C36.3911 66.0134 43.0104 61.4767 56.4467 60.7405C69.883 60.0044 100.342 58.4641 117.714 62.3343C126.598 64.3134 144.69 76.1818 153.759 81.7387C174.322 83.551 184.5 88.0132 186.146 93.7018C187.792 99.3905 186.426 112.938 178.06 118.556Z" fill="#F3F0E8"/>
<circle cx="131.443" cy="112.679" r="8.67689" stroke="black" stroke-width="1.05659"/>
<circle cx="34.7584" cy="112.679" r="8.67689" stroke="black" stroke-width="1.05659"/>
<circle cx="34.7583" cy="112.679" r="14.5366" stroke="black" stroke-width="1.05659"/>
<path d="M183.618 112.116C183.618 119.958 177.261 126.315 169.419 126.315C164.644 126.315 160.419 123.957 157.845 120.342" stroke="black" stroke-width="1.05659"/>
<path d="M131.444 98.1429C123.415 98.1429 116.907 104.651 116.907 112.68C116.907 120.708 123.415 127.216 131.444 127.216C138.146 127.216 143.789 122.68 145.47 116.511C155.707 116.511 177.014 116.511 180.35 116.511C184.519 116.511 188.679 114.331 189.252 110.088C189.826 105.844 190.266 98.1429 187.562 92.9594" stroke="black" stroke-width="1.05659"/>
<path d="M17.4041 113.13C15.9016 110.501 13.2572 103.214 14.6996 95.1005C16.5026 84.9586 20.4467 81.6907 27.546 81.8034C33.2254 81.8936 89.1857 82.8176 116.456 83.2684C111.498 77.5214 98.1105 66.0048 84.2275 65.9146C66.8737 65.8019 61.014 66.0273 58.0841 66.3654C55.1543 66.7034 47.8296 66.3653 30.5885 86.4236" stroke="black" stroke-width="1.05659"/>
<path d="M13.0098 89.3533L14.362 85.0712L24.1658 86.0853C23.1741 88.9701 16.3152 89.466 13.0098 89.3533Z" fill="#F9482E"/>
<path d="M72.9587 66.0272L69.0146 82.5921" stroke="black" stroke-width="1.05659"/>
<path d="M103.047 66.8159L124.119 83.2681C136.289 82.4042 166.828 82.6309 177.308 85.5219C180.047 86.2776 185.196 87.4376 187.675 93.41" stroke="black" stroke-width="1.05659"/>
<path d="M154.883 82.7047C149.211 79.1738 136.83 71.5261 132.683 69.1822C127.5 66.2524 113.301 62.1957 86.7072 62.083C60.1131 61.9703 55.2675 63.2098 51.6616 64.1113C48.0556 65.0128 39.3787 68.957 28.7861 77.5212" stroke="black" stroke-width="1.05659"/>
<path d="M113.301 117.75H47.9424" stroke="black" stroke-width="1.05659"/>
<path d="M46.0269 127.216C85.7678 127.216 168.991 127.216 183.956 127.216C202.662 127.216 234.89 117.976 232.862 81.1272C230.833 44.2786 208.972 11.007 202.549 11.374C196.126 11.7411 211.789 45.4056 214.268 45.1802C216.747 44.9548 198.041 5.21442 190.266 6.86665C183.618 8.27943 202.211 44.7793 204.69 44.5039C207.169 44.2284 190.266 11.1654 184.406 13.1769C176.856 15.7687 193.083 46.7574 194.886 45.9688C196.689 45.1802 190.294 34.8763 178.997 40.4471C170.771 44.5039 168.63 53.2934 170.771 54.4203C172.912 55.5472 181.788 46.1666 189.477 49.124C195.337 51.3778 196.238 58.2517 191.393 60.3927C187.336 62.1852 173.701 53.0681 170.771 58.2517C167.841 63.4352 187.562 69.9711 189.477 74.2532" stroke="black" stroke-width="1.05659"/>
<path d="M148.231 24.1896H151.369C153.794 24.1896 155.759 22.224 155.759 19.7993V16.8725" stroke="black" stroke-width="1.05659"/>
<path d="M148.231 24.1896H151.369C153.794 24.1896 155.759 26.1552 155.759 28.5798V31.5067" stroke="black" stroke-width="1.05659"/>
<path d="M163.287 24.1896H160.149C157.725 24.1896 155.759 22.224 155.759 19.7993V16.8725" stroke="black" stroke-width="1.05659"/>
<path d="M163.287 24.1896H160.149C157.725 24.1896 155.759 26.1552 155.759 28.5798V31.5067" stroke="black" stroke-width="1.05659"/>
<path d="M122.466 39.6443H125.758C129.395 39.6443 132.344 36.6959 132.344 33.0589V30.0433" stroke="black" stroke-width="1.05659"/>
<path d="M122.466 39.6441H125.758C129.395 39.6441 132.344 42.5924 132.344 46.2294V49.2451" stroke="black" stroke-width="1.05659"/>
<path d="M142.222 39.6443H138.929C135.292 39.6443 132.344 36.6959 132.344 33.0589V30.0433" stroke="black" stroke-width="1.05659"/>
<path d="M142.222 39.6441H138.929C135.292 39.6441 132.344 42.5924 132.344 46.2294V49.2451" stroke="black" stroke-width="1.05659"/>
<path d="M145.585 90.0818C146.623 91.3997 150.862 93.9681 159.52 93.6988C168.177 93.4295 183.814 93.2091 190.55 93.1325" stroke="black" stroke-width="1.05659"/>
<path d="M28.8076 54.6998L36.1527 55.4317" stroke="black" stroke-width="1.05659"/>
<path d="M22.2222 39.1896L46.0936 48.0412" stroke="black" stroke-width="1.05659"/>
</svg>
