<svg width="40" height="24" viewBox="0 0 40 24" fill="none" xmlns="http://www.w3.org/2000/svg">
<path d="M38.8787 15.0282C38.2507 15.0282 37.7424 14.5348 37.7424 13.9218C37.7424 13.3088 38.2507 12.8005 38.8787 12.8005C39.4917 12.8005 40 13.3088 40 13.9218C40 14.5348 39.4917 15.0282 38.8787 15.0282Z" fill="#2D2D2D"/>
<path d="M7.59996 14.8458V7.54971H9.27448V8.55144H9.30439C9.90243 7.83379 10.7845 7.44506 11.7414 7.44506C13.3412 7.44506 14.4177 8.35707 14.4177 10.5549V14.8458H12.7431V10.9885C12.7431 9.4485 12.16 8.95512 11.1583 8.95512C10.022 8.95512 9.27448 9.74752 9.27448 11.1828V14.8458H7.59996Z" fill="#2D2D2D"/>
<path d="M24.9452 15.3301C22.9268 15.3301 21.4168 13.85 21.4168 11.5923C21.4168 9.39453 22.9268 7.80972 24.9303 7.80972C25.8573 7.80972 26.6646 8.15359 27.1879 8.81144L27.2178 8.79649V7.91437H28.8923V15.2105H27.2926V14.2536L27.2627 14.2387C26.7394 14.9414 25.9619 15.3301 24.9452 15.3301ZM25.2144 13.8051C26.3506 13.8051 27.2926 12.923 27.2926 11.6073C27.2926 10.3066 26.4104 9.31978 25.2144 9.31978C24.0482 9.31978 23.1212 10.2019 23.1212 11.6073C23.1212 12.8931 23.9734 13.8051 25.2144 13.8051Z" fill="#2D2D2D"/>
<path d="M29.4502 18.1708V7.91437H31.1247V8.78154H31.1546C31.6929 8.15359 32.5002 7.80972 33.4571 7.80972C35.4755 7.80972 36.9855 9.39453 36.9855 11.5923C36.9855 13.85 35.4755 15.3301 33.4421 15.3301C32.4554 15.3301 31.6929 14.9713 31.1546 14.3134L31.1247 14.3284V18.1708H29.4502ZM33.188 13.8051C34.4139 13.8051 35.2811 12.8931 35.2811 11.6073C35.2811 10.2019 34.3392 9.31978 33.173 9.31978C31.9171 9.31978 31.05 10.3066 31.05 11.6073C31.05 12.923 31.9919 13.8051 33.188 13.8051Z" fill="#2D2D2D"/>
<path d="M16.7744 7.73496H15.1334V15.0282H16.7744V7.73496Z" fill="#2D2D2D"/>
<path d="M22.4266 5.18233H15.1334V6.8233H18.78V15.0282H20.6033V6.8233H22.4266V5.18233Z" fill="#2D2D2D"/>
<path d="M0 12.202V5H1.89209V11.8052C1.85459 12.6676 2.54361 13.3872 3.40679 13.3872C4.24412 13.3872 4.92292 12.7084 4.92292 11.8711V5H7.11088V12.202C7.11088 14.1657 5.3704 15.0282 3.40679 15.0282C1.44317 15.0282 0 14.1657 0 12.202Z" fill="#2D2D2D"/>
</svg>
