<svg width="24" height="24" viewBox="0 0 24 24" fill="none" xmlns="http://www.w3.org/2000/svg">
<path fill-rule="evenodd" clip-rule="evenodd" d="M6.53033 0.659011C6.95229 0.237054 7.52458 0 8.12132 0H15.8787C16.4754 0 17.0477 0.237051 17.4697 0.659006L23.341 6.53033C23.763 6.95229 24 7.52458 24 8.12132V15.8787C24 16.4754 23.763 17.0477 23.341 17.4697L17.4697 23.341C17.0477 23.7629 16.4754 24 15.8787 24H8.12135C7.52461 24 6.95232 23.7629 6.53036 23.341L0.659014 17.4697C0.237055 17.0477 0 16.4754 0 15.8787V8.12132C0 7.52458 0.237053 6.95229 0.65901 6.53033L6.53033 0.659011ZM8.12132 1.5C7.92241 1.5 7.73164 1.57902 7.59099 1.71967L1.71967 7.59099C1.57902 7.73164 1.5 7.92241 1.5 8.12132V15.8787C1.5 16.0776 1.57902 16.2684 1.71967 16.409L7.59102 22.2803C7.73167 22.421 7.92244 22.5 8.12135 22.5H15.8787C16.0776 22.5 16.2684 22.421 16.409 22.2803L22.2804 16.409C22.421 16.2684 22.5 16.0776 22.5 15.8787V8.12132C22.5 7.92241 22.421 7.73164 22.2804 7.59099L16.409 1.71967C16.2684 1.57902 16.0776 1.5 15.8787 1.5H8.12132Z" fill="#FF3B30"/>
<path d="M13 16C13 15.4477 12.5523 15 12 15C11.4477 15 11 15.4477 11 16C11 16.5523 11.4477 17 12 17C12.5523 17 13 16.5523 13 16Z" fill="#FF3B30"/>
<path d="M12.75 7C12.75 6.58579 12.4142 6.25 12 6.25C11.6102 6.25 11.2898 6.54744 11.2534 6.92777L11.25 7V12.5C11.25 12.9142 11.5858 13.25 12 13.25C12.3898 13.25 12.7102 12.9526 12.7466 12.5722L12.75 12.5V7Z" fill="#FF3B30"/>
</svg>
