<svg width="29" height="28" viewBox="0 0 29 28" fill="none" xmlns="http://www.w3.org/2000/svg">
<path d="M24.8504 24V21.8889C24.8504 19.9215 23.5048 18.2684 21.6837 17.7997M17.9893 5.30691C19.5366 5.93327 20.6281 7.45027 20.6281 9.22222C20.6281 10.9942 19.5366 12.5112 17.9893 13.1375M19.5726 24C19.5726 22.0327 19.5726 21.049 19.2512 20.2731C18.8227 19.2386 18.0007 18.4166 16.9661 17.9881C16.1902 17.6667 15.2066 17.6667 13.2393 17.6667H10.0726C8.10528 17.6667 7.12163 17.6667 6.34571 17.9881C5.31114 18.4166 4.48919 19.2386 4.06066 20.2731C3.73926 21.049 3.73926 22.0327 3.73926 24M15.8781 9.22222C15.8781 11.5541 13.9878 13.4444 11.6559 13.4444C9.32406 13.4444 7.4337 11.5541 7.4337 9.22222C7.4337 6.89035 9.32406 5 11.6559 5C13.9878 5 15.8781 6.89035 15.8781 9.22222Z" stroke="#131314" stroke-opacity="0.4" stroke-width="2" stroke-linecap="round" stroke-linejoin="round"/>
</svg>
