<svg width="32" height="32" viewBox="0 0 32 32" fill="none" xmlns="http://www.w3.org/2000/svg">
<rect width="32" height="32" rx="16" fill="url(#paint0_radial_3460_259844)"/>
<path fill-rule="evenodd" clip-rule="evenodd" d="M18.8809 11.4445C17.7455 12.2885 16.4337 13.083 15.0775 13.477C13.7214 13.871 12.1878 13.9032 10.7767 13.799C11.6211 14.9344 12.4161 16.2462 12.8104 17.6023C13.2046 18.9577 13.2383 20.4892 13.1357 21.8984C14.2703 21.0564 15.5812 20.2638 16.9368 19.87C18.2923 19.4761 19.824 19.4428 21.2334 19.5457C20.391 18.4111 19.5981 17.1002 19.2039 15.7447C18.8095 14.3887 18.777 12.8553 18.8809 11.4445ZM19.4586 7.57669C17.8592 9.07225 15.9922 10.5165 14.3549 10.9922C12.7175 11.4679 10.3668 11.2491 8.21454 10.8435C7.99515 10.8021 7.77783 10.7589 7.56354 10.7142C7.08486 10.6144 6.62128 10.5076 6.18356 10.3998C6.05756 10.3687 5.9337 10.3376 5.81224 10.3065C5.23373 10.1586 4.73213 11.0713 5.16713 11.4804C5.25846 11.5663 5.35113 11.6541 5.44488 11.7439C5.77054 12.0556 6.10922 12.3897 6.45008 12.7402C6.60268 12.8972 6.75571 13.0574 6.90822 13.2205C8.40438 14.82 9.84926 16.6871 10.3254 18.3243C10.8015 19.9612 10.586 22.306 10.1842 24.4518C10.1434 24.6696 10.1007 24.8853 10.0566 25.098C9.95745 25.5762 9.85127 26.0394 9.74405 26.4766C9.71303 26.6031 9.68193 26.7274 9.65089 26.8493C9.50362 27.4274 10.4154 27.9285 10.8245 27.4942C10.9107 27.4027 10.999 27.3098 11.0891 27.2158C11.4007 26.8909 11.7348 26.553 12.0854 26.2129C12.2413 26.0617 12.4005 25.91 12.5624 25.7589C14.1585 24.2693 16.0224 22.8304 17.6594 22.3548C19.2965 21.8792 21.6416 22.0951 23.7879 22.4974C24.0057 22.5382 24.2214 22.581 24.4341 22.6251C24.9125 22.7243 25.3757 22.8306 25.813 22.9379C25.9395 22.9689 26.0639 23.0001 26.1858 23.0311C26.764 23.1785 27.2649 22.267 26.8306 21.8579C26.739 21.7716 26.6461 21.6833 26.552 21.5932C26.227 21.2816 25.889 20.9475 25.5488 20.5969C25.3975 20.4409 25.2458 20.2817 25.0946 20.1198C23.6044 18.5236 22.165 16.6596 21.6889 15.0227C21.2128 13.3855 21.4311 11.0352 21.8362 8.88335C21.8775 8.66402 21.9208 8.44675 21.9654 8.2325C22.0651 7.75392 22.1718 7.29043 22.2796 6.8528C22.3106 6.72682 22.3417 6.60298 22.3727 6.48154C22.5205 5.90315 21.6076 5.40142 21.1986 5.83627C21.1127 5.92757 21.0248 6.02021 20.9351 6.11392C20.6234 6.43946 20.2893 6.77801 19.9388 7.11875C19.7819 7.27128 19.6216 7.42425 19.4586 7.57669Z" fill="white"/>
<path d="M15.0775 13.477C16.4337 13.083 17.7455 12.2885 18.8809 11.4445C18.777 12.8553 18.8095 14.3887 19.2039 15.7447C19.5981 17.1002 20.391 18.4111 21.2334 19.5457C19.824 19.4428 18.2923 19.4761 16.9368 19.87C15.5812 20.2638 14.2703 21.0564 13.1357 21.8984C13.2383 20.4892 13.2046 18.9577 12.8104 17.6023C12.4161 16.2462 11.6211 14.9344 10.7767 13.799C12.1878 13.9032 13.7214 13.871 15.0775 13.477Z" fill="white"/>
<defs>
<radialGradient id="paint0_radial_3460_259844" cx="0" cy="0" r="1" gradientUnits="userSpaceOnUse" gradientTransform="translate(-6.4 35.2) rotate(-51.953) scale(62.3065 116.248)">
<stop offset="0.121301" stop-color="#BAFC00"/>
<stop offset="0.771558" stop-color="#27C80C"/>
</radialGradient>
</defs>
</svg>
